<svg xmlns="http://www.w3.org/2000/svg" width="153.604" height="74.216" viewBox="0 0 153.604 74.216">
  <g id="dots" transform="translate(0)">
    <g id="Group_9" data-name="Group 9">
      <g id="Group_6" data-name="Group 6" transform="translate(2.168 7.175)">
        <g id="Ellipse_1" data-name="Ellipse 1" fill="none" stroke="#ff296d" stroke-width="1">
          <circle cx="1" cy="1" r="1" stroke="none"/>
          <circle cx="1" cy="1" r="0.5" fill="none"/>
        </g>
        <g id="Ellipse_2" data-name="Ellipse 2" transform="translate(15 3)" fill="none" stroke="#ff296d" stroke-width="1">
          <circle cx="1" cy="1" r="1" stroke="none"/>
          <circle cx="1" cy="1" r="0.5" fill="none"/>
        </g>
      </g>
      <g id="Group_7" data-name="Group 7" transform="translate(25.144 0) rotate(40)">
        <g id="Ellipse_1-2" data-name="Ellipse 1" transform="translate(0)" fill="none" stroke="#ff296d" stroke-width="1">
          <circle cx="0.515" cy="0.515" r="0.515" stroke="none"/>
          <circle cx="0.515" cy="0.515" r="0.015" fill="none"/>
        </g>
        <g id="Ellipse_2-2" data-name="Ellipse 2" transform="translate(7.718 1.544)" fill="none" stroke="#ff296d" stroke-width="1">
          <circle cx="0.515" cy="0.515" r="0.515" stroke="none"/>
          <circle cx="0.515" cy="0.515" r="0.015" fill="none"/>
        </g>
      </g>
      <g id="Group_8" data-name="Group 8" transform="matrix(-0.208, 0.978, -0.978, -0.208, 4.335, 19.786)">
        <g id="Ellipse_1-3" data-name="Ellipse 1" transform="translate(0 0)" fill="none" stroke="#ff296d" stroke-width="1">
          <circle cx="0.515" cy="0.515" r="0.515" stroke="none"/>
          <circle cx="0.515" cy="0.515" r="0.015" fill="none"/>
        </g>
        <g id="Ellipse_2-3" data-name="Ellipse 2" transform="translate(7.718 1.544)" fill="none" stroke="#ff296d" stroke-width="1">
          <circle cx="0.515" cy="0.515" r="0.515" stroke="none"/>
          <circle cx="0.515" cy="0.515" r="0.015" fill="none"/>
        </g>
      </g>
    </g>
    <g id="Group_10" data-name="Group 10" transform="translate(154.09 73.777) rotate(179)">
      <g id="Group_6-2" data-name="Group 6" transform="translate(2.168 7.175)">
        <g id="Ellipse_1-4" data-name="Ellipse 1" fill="none" stroke="#ff296d" stroke-width="1">
          <circle cx="1" cy="1" r="1" stroke="none"/>
          <circle cx="1" cy="1" r="0.5" fill="none"/>
        </g>
        <g id="Ellipse_2-4" data-name="Ellipse 2" transform="translate(15 3)" fill="none" stroke="#ff296d" stroke-width="1">
          <circle cx="1" cy="1" r="1" stroke="none"/>
          <circle cx="1" cy="1" r="0.5" fill="none"/>
        </g>
      </g>
      <g id="Group_7-2" data-name="Group 7" transform="translate(25.144 0) rotate(40)">
        <g id="Ellipse_1-5" data-name="Ellipse 1" transform="translate(0)" fill="none" stroke="#ff296d" stroke-width="1">
          <circle cx="0.515" cy="0.515" r="0.515" stroke="none"/>
          <circle cx="0.515" cy="0.515" r="0.015" fill="none"/>
        </g>
        <g id="Ellipse_2-5" data-name="Ellipse 2" transform="translate(7.718 1.544)" fill="none" stroke="#ff296d" stroke-width="1">
          <circle cx="0.515" cy="0.515" r="0.515" stroke="none"/>
          <circle cx="0.515" cy="0.515" r="0.015" fill="none"/>
        </g>
      </g>
      <g id="Group_8-2" data-name="Group 8" transform="matrix(-0.208, 0.978, -0.978, -0.208, 4.335, 19.786)">
        <g id="Ellipse_1-6" data-name="Ellipse 1" transform="translate(0 0)" fill="none" stroke="#ff296d" stroke-width="1">
          <circle cx="0.515" cy="0.515" r="0.515" stroke="none"/>
          <circle cx="0.515" cy="0.515" r="0.015" fill="none"/>
        </g>
        <g id="Ellipse_2-6" data-name="Ellipse 2" transform="translate(7.718 1.544)" fill="none" stroke="#ff296d" stroke-width="1">
          <circle cx="0.515" cy="0.515" r="0.515" stroke="none"/>
          <circle cx="0.515" cy="0.515" r="0.015" fill="none"/>
        </g>
      </g>
    </g>
  </g>
</svg>
